<svg id="_1" data-name="1" xmlns="http://www.w3.org/2000/svg" viewBox="0 0 85 80.94"><defs><style>.cls-1{fill:#fff;stroke:#fff;stroke-miterlimit:10;}</style></defs><path class="cls-1" d="M22.24,46.46H12.35V73.63h9.88ZM20.59,72H14V48.1h6.59Z" transform="translate(0.5 -1.42)"/><path class="cls-1" d="M38.71,46.46H28.82V73.63h9.88ZM37.06,72H30.47V48.1h6.59Z" transform="translate(0.5 -1.42)"/><path class="cls-1" d="M55.18,46.46H45.29V73.63h9.88ZM53.53,72H46.94V48.1h6.59Z" transform="translate(0.5 -1.42)"/><path class="cls-1" d="M71.65,46.46H61.76V73.63h9.88ZM70,72H63.41V48.1H70Z" transform="translate(0.5 -1.42)"/><path class="cls-1" d="M84,24.22H59.07L70.68,12.61,60.2,2.13,38.11,24.22H0V39.87H4.94V73.63a8.24,8.24,0,0,0,8.24,8.24H70.82a8.24,8.24,0,0,0,8.24-8.24V39.87H84ZM68.35,12.61,46.22,34.74a5.76,5.76,0,1,1-8.15-8.15L60.2,4.46Zm9.06,61a6.6,6.6,0,0,1-6.59,6.59H13.18a6.6,6.6,0,0,1-6.59-6.59V39.87H77.41Zm4.94-35.41H1.65V25.87H36.5a7.41,7.41,0,0,0,10.88,10l10-10H82.35Z" transform="translate(0.5 -1.42)"/><path class="cls-1" d="M42,34.93a3.29,3.29,0,1,0-3.29-3.29A3.29,3.29,0,0,0,42,34.93ZM42,30a1.65,1.65,0,1,1-1.65,1.65A1.65,1.65,0,0,1,42,30Z" transform="translate(0.5 -1.42)"/></svg>
