<?xml version="1.0" encoding="utf-8"?>
<!-- Generator: Adobe Illustrator 21.0.0, SVG Export Plug-In . SVG Version: 6.00 Build 0)  -->
<svg version="1.1" id="_x2018_ëîé_x5F_1" xmlns="http://www.w3.org/2000/svg" xmlns:xlink="http://www.w3.org/1999/xlink"
	 x="0px" y="0px" viewBox="0 0 84 84" style="enable-background:new 0 0 84 84;" xml:space="preserve">
<style type="text/css">
	.st0{fill:#FFFFFF;}
</style>
<g>
	<path class="st0" d="M42,25.2c7,0,12.6-5.6,12.6-12.6S49,0,42,0c-7,0-12.6,5.6-12.6,12.6S35,25.2,42,25.2z M42,4.2
		c4.6,0,8.4,3.8,8.4,8.4S46.6,21,42,21c-4.6,0-8.4-3.8-8.4-8.4S37.4,4.2,42,4.2z"/>
	<path class="st0" d="M50.4,29.4H33.6c-2,0-3.8,1.5-4.1,3.4l-4.2,23.1c-0.2,1.2,0.1,2.5,0.9,3.4c0.8,1,2,1.5,3.2,1.5h2.7l1.5,19.2
		c0.2,2.2,2,3.9,4.2,3.9h8.4c2.2,0,4-1.7,4.2-3.9l1.5-19.2h2.7c1.2,0,2.4-0.6,3.2-1.5s1.1-2.2,0.9-3.4l-4.2-23.1
		C54.2,30.9,52.4,29.4,50.4,29.4z M48,56.7l-1.8,23.1h-8.4L36,56.7h-6.6l4.2-23.1h6.3v12.6c0,1.2,0.9,2.1,2.1,2.1
		c1.2,0,2.1-0.9,2.1-2.1V33.6h6.3l4.2,23.1H48z"/>
	<path class="st0" d="M68,24.4c5.6,0,10.1-4.5,10.1-10.1c0-5.6-4.5-10.1-10.1-10.1C62.5,4.2,58,8.7,58,14.3
		C58,19.8,62.5,24.4,68,24.4z M68,7.6c3.7,0,6.7,3,6.7,6.7c0,3.7-3,6.7-6.7,6.7c-3.7,0-6.7-3-6.7-6.7C61.3,10.6,64.3,7.6,68,7.6z"/>
	<path class="st0" d="M78.1,30.5c-0.3-1.6-1.7-2.8-3.3-2.8H61.3c-1.6,0-2.9,1.1-3.2,2.6c0.2,0.6,0.5,1.2,0.6,1.8l1.2,6.8l1.4-7.8h5
		v10.1c0,0.9,0.8,1.7,1.7,1.7c0.9,0,1.7-0.8,1.7-1.7V31.1h5l3.4,18.5h-5.3L71.4,68h-6.7L63,58.8L60.5,63l0.9,5.3
		c0.1,1.7,1.6,3.1,3.3,3.1h6.7c1.8,0,3.2-1.3,3.3-3.1L76,52.9h2.1c1,0,1.9-0.4,2.6-1.2c0.6-0.8,0.9-1.8,0.7-2.8L78.1,30.5z"/>
	<path class="st0" d="M16,24.4c5.6,0,10.1-4.5,10.1-10.1C26,8.7,21.5,4.2,16,4.2c-5.6,0-10.1,4.5-10.1,10.1
		C5.9,19.8,10.4,24.4,16,24.4z M16,7.6c3.7,0,6.7,3,6.7,6.7c0,3.7-3,6.7-6.7,6.7c-3.7,0-6.7-3-6.7-6.7C9.2,10.6,12.3,7.6,16,7.6z"/>
	<path class="st0" d="M16,42.8c0.9,0,1.7-0.8,1.7-1.7V31.1h5l1.4,7.8l1.2-6.8c0.1-0.6,0.3-1.2,0.6-1.8c-0.4-1.5-1.7-2.6-3.2-2.6H9.2
		c-1.6,0-3,1.2-3.3,2.8L2.6,49c-0.2,1,0.1,2,0.7,2.8c0.6,0.8,1.6,1.2,2.6,1.2H8l1.2,15.4c0.1,1.7,1.6,3.1,3.3,3.1h6.7
		c1.8,0,3.2-1.3,3.3-3.1l0.9-5.3L21,58.8L19.3,68h-6.7l-1.5-18.5H5.9l3.4-18.5h5v10.1C14.3,42.1,15,42.8,16,42.8z"/>
</g>
</svg>
