<?xml version="1.0" encoding="utf-8"?>
<!-- Generator: Adobe Illustrator 21.0.0, SVG Export Plug-In . SVG Version: 6.00 Build 0)  -->
<svg version="1.1" id="_x2018_ëîé_x5F_1" xmlns="http://www.w3.org/2000/svg" xmlns:xlink="http://www.w3.org/1999/xlink"
	 x="0px" y="0px" viewBox="0 0 84 84" style="enable-background:new 0 0 84 84;" xml:space="preserve">
<style type="text/css">
	.st0{fill:#FFFFFF;}
</style>
<g>
	<path class="st0" d="M84,12.1c0-4.3-3.5-7.8-7.8-7.8H28.5V3.6c0-2-1.6-3.6-3.6-3.6h-8.5C14.7,0,0,1.2,0,42s14.7,42,16.4,42h8.5
		c2,0,3.6-1.6,3.6-3.6v-0.7h47.7c4.3,0,7.8-3.5,7.8-7.8V12.1z M25.6,81.2h-9.3C10.9,81.2,2.8,70.7,2.8,42S10.9,2.8,16.4,2.8h9.3
		v18.5h-9.3c-3.2,0-5.7,8.9-5.7,20.6s2.4,20.6,5.7,20.6h9.3V81.2z M21.4,24.2v35.6h-4.7l-0.2-0.3c-1.2-1.7-3-7.7-3-17.5
		s1.8-15.8,3-17.5l0.2-0.3H21.4z M81.2,71.9c0,2.7-2.2,5-5,5H28.5V63.4c0-2-1.6-3.6-3.6-3.6h-0.7V24.2h0.7c2,0,3.6-1.6,3.6-3.6V7.1
		h47.7c2.7,0,5,2.2,5,5V71.9z"/>
	<path class="st0" d="M43.4,21.7h-4.3c-1.2,0-2.1,1-2.1,2.1s1,2.1,2.1,2.1h4.3c1.2,0,2.1-1,2.1-2.1S44.6,21.7,43.4,21.7z"/>
	<path class="st0" d="M56.2,21.7H52c-1.2,0-2.1,1-2.1,2.1s1,2.1,2.1,2.1h4.3c1.2,0,2.1-1,2.1-2.1S57.4,21.7,56.2,21.7z"/>
	<path class="st0" d="M69.1,21.7h-4.3c-1.2,0-2.1,1-2.1,2.1s1,2.1,2.1,2.1h4.3c1.2,0,2.1-1,2.1-2.1S70.2,21.7,69.1,21.7z"/>
	<path class="st0" d="M43.4,34.5h-4.3c-1.2,0-2.1,1-2.1,2.1c0,1.2,1,2.1,2.1,2.1h4.3c1.2,0,2.1-1,2.1-2.1
		C45.6,35.5,44.6,34.5,43.4,34.5z"/>
	<path class="st0" d="M56.2,34.5H52c-1.2,0-2.1,1-2.1,2.1c0,1.2,1,2.1,2.1,2.1h4.3c1.2,0,2.1-1,2.1-2.1
		C58.4,35.5,57.4,34.5,56.2,34.5z"/>
	<path class="st0" d="M69.1,34.5h-4.3c-1.2,0-2.1,1-2.1,2.1c0,1.2,1,2.1,2.1,2.1h4.3c1.2,0,2.1-1,2.1-2.1
		C71.2,35.5,70.2,34.5,69.1,34.5z"/>
	<path class="st0" d="M43.4,47.3h-4.3c-1.2,0-2.1,1-2.1,2.1c0,1.2,1,2.1,2.1,2.1h4.3c1.2,0,2.1-1,2.1-2.1
		C45.6,48.3,44.6,47.3,43.4,47.3z"/>
	<path class="st0" d="M56.2,47.3H52c-1.2,0-2.1,1-2.1,2.1c0,1.2,1,2.1,2.1,2.1h4.3c1.2,0,2.1-1,2.1-2.1
		C58.4,48.3,57.4,47.3,56.2,47.3z"/>
	<path class="st0" d="M69.1,47.3h-4.3c-1.2,0-2.1,1-2.1,2.1c0,1.2,1,2.1,2.1,2.1h4.3c1.2,0,2.1-1,2.1-2.1
		C71.2,48.3,70.2,47.3,69.1,47.3z"/>
	<path class="st0" d="M43.4,60.2h-4.3c-1.2,0-2.1,1-2.1,2.1s1,2.1,2.1,2.1h4.3c1.2,0,2.1-1,2.1-2.1S44.6,60.2,43.4,60.2z"/>
	<path class="st0" d="M56.2,60.2H52c-1.2,0-2.1,1-2.1,2.1s1,2.1,2.1,2.1h4.3c1.2,0,2.1-1,2.1-2.1S57.4,60.2,56.2,60.2z"/>
	<path class="st0" d="M69.1,60.2h-4.3c-1.2,0-2.1,1-2.1,2.1s1,2.1,2.1,2.1h4.3c1.2,0,2.1-1,2.1-2.1S70.2,60.2,69.1,60.2z"/>
</g>
</svg>
