<svg id="Layer_1" data-name="Layer 1" xmlns="http://www.w3.org/2000/svg" viewBox="0 0 226 35.28">
    <defs>
        <style>.cls-1{fill:#fff;}.cls-2{fill:#ff9800;}</style>
    </defs>
    <title>logo_msp4</title>
    <path class="cls-1"
          d="M16.91,11.4c-3,0-7.55,5.87-7.55,11.34s2.59,5.65,3.54,5.65c1.77,0,2.63-3.28,4.4-5.61s5.52-2.29,5.52-6C22.82,14.8,20.14,11.4,16.91,11.4Z"
          transform="translate(0 -0.36)"/>
    <ellipse class="cls-1" cx="25.82" cy="13.94" rx="2.72" ry="2.22" transform="translate(-3.51 14.42) rotate(-30.01)"/>
    <ellipse class="cls-1" cx="22.82" cy="10.4" rx="1.97" ry="1.61" transform="translate(1.1 22.58) rotate(-54.5)"/>
    <ellipse class="cls-1" cx="19.45" cy="9.28" rx="1.71" ry="1.4" transform="translate(3.79 23.73) rotate(-68.89)"/>
    <ellipse class="cls-1" cx="16.09" cy="9.28" rx="1.45" ry="1.18" transform="translate(4.59 23.51) rotate(-81.72)"/>
    <ellipse class="cls-1" cx="13.59" cy="10.4" rx="0.84" ry="1.02" transform="translate(-2.81 5.15) rotate(-20.82)"/>
    <path class="cls-1"
          d="M15.4.37A17.75,17.75,0,0,0,0,15.76,1.08,1.08,0,0,0,1.08,17H3.44a1.08,1.08,0,0,0,1.07-.92A13.35,13.35,0,0,1,15.7,4.87a1.08,1.08,0,0,0,.92-1.07V1.44A1.08,1.08,0,0,0,15.4.37Z"
          transform="translate(0 -0.36)"/>
    <path class="cls-2"
          d="M19.58,4.87A13.35,13.35,0,0,1,30.77,16.06a1.08,1.08,0,0,0,1.07.92H34.2a1.08,1.08,0,0,0,1.07-1.22A17.75,17.75,0,0,0,19.88.37a1.08,1.08,0,0,0-1.22,1.07V3.8A1.08,1.08,0,0,0,19.58,4.87Z"
          transform="translate(0 -0.36)"/>
    <path class="cls-1"
          d="M34.2,19H31.84a1.08,1.08,0,0,0-1.07.92A13.35,13.35,0,0,1,19.58,31.13a1.08,1.08,0,0,0-.92,1.07v2.36a1.08,1.08,0,0,0,1.08,1.08h.14A17.75,17.75,0,0,0,35.27,20.24,1.08,1.08,0,0,0,34.2,19Z"
          transform="translate(0 -0.36)"/>
    <path class="cls-1"
          d="M15.7,31.13A13.35,13.35,0,0,1,4.51,19.94,1.08,1.08,0,0,0,3.44,19H1.08A1.08,1.08,0,0,0,0,20.24,17.75,17.75,0,0,0,15.4,35.63h.14a1.08,1.08,0,0,0,1.08-1.08V32.2A1.08,1.08,0,0,0,15.7,31.13Z"
          transform="translate(0 -0.36)"/>
    <path class="cls-1"
          d="M74.59,3.56a4.18,4.18,0,0,0-3.88,2.62L63.56,24H63.4L56.24,6.19a4.18,4.18,0,0,0-3.88-2.62h0a4.18,4.18,0,0,0-4.18,4.18v22a2.69,2.69,0,0,0,2.69,2.69h0a2.69,2.69,0,0,0,2.69-2.69V12.95h.16L60.86,30.4a2.83,2.83,0,0,0,5.24,0l7.12-17.45h.16v16.8a2.69,2.69,0,0,0,2.69,2.69h0a2.69,2.69,0,0,0,2.69-2.69v-22A4.18,4.18,0,0,0,74.59,3.56Z"
          transform="translate(0 -0.36)"/>
    <path class="cls-1"
          d="M97.43,15.67l-3.5-.74a10.16,10.16,0,0,1-3.61-1.4,2.54,2.54,0,0,1-1.11-2.14,3,3,0,0,1,1.37-2.58,6.08,6.08,0,0,1,3.61-1,6.3,6.3,0,0,1,3.75,1.05,3.79,3.79,0,0,1,1.2,1.36A2.8,2.8,0,1,0,104,7.44a8.2,8.2,0,0,0-1.83-2,12.47,12.47,0,0,0-8-2.37,12.45,12.45,0,0,0-8,2.44,7.77,7.77,0,0,0-3.09,6.4q0,6.36,7.94,8.06l3.76.82a9.89,9.89,0,0,1,3.74,1.44,2.72,2.72,0,0,1,1.12,2.26,3.08,3.08,0,0,1-1.51,2.63,6.81,6.81,0,0,1-3.91,1,7.33,7.33,0,0,1-4.09-1.09,4.27,4.27,0,0,1-1.43-1.46,2.82,2.82,0,0,0-2.47-1.39h0a2.89,2.89,0,0,0-2.37,4.54,8.22,8.22,0,0,0,1.81,1.85A13.49,13.49,0,0,0,94,32.94q5.38,0,8.54-2.47a8,8,0,0,0,3.16-6.67,7,7,0,0,0-2-5.25A12.65,12.65,0,0,0,97.43,15.67Z"
          transform="translate(0 -0.36)"/>
    <path class="cls-1"
          d="M121.48,3.56h-9.09a3,3,0,0,0-3,3v22.9a3,3,0,0,0,6,0V25.15a1.82,1.82,0,0,1,1.82-1.82h3.88a10.34,10.34,0,0,0,7.44-2.73,9.44,9.44,0,0,0,2.86-7.15,9.59,9.59,0,0,0-2.77-7.16A9.88,9.88,0,0,0,121.48,3.56Zm2.42,13.71a5.71,5.71,0,0,1-4,1.34h-3.09a1.29,1.29,0,0,1-1.29-1.29V9.66a1.31,1.31,0,0,1,1.31-1.31h3.09a5.7,5.7,0,0,1,4,1.33,4.92,4.92,0,0,1,1.43,3.79A4.94,4.94,0,0,1,123.9,17.27Z"
          transform="translate(0 -0.36)"/>
    <path class="cls-1"
          d="M155.24,22.45a1.34,1.34,0,0,1-1.34-1.34V6.52a3,3,0,0,0-3-3H147A3.14,3.14,0,0,0,144.43,5c-4.9,7.35-10.29,16.53-10.29,16.53a5.49,5.49,0,0,0-.35,1.39v1.45a3,3,0,0,0,3,3H147.4a.75.75,0,0,1,.75.75v1.52a2.87,2.87,0,0,0,5.74,0v-.93a1.34,1.34,0,0,1,1.34-1.34,2.42,2.42,0,1,0,0-4.84Zm-8,.18h-6.62a.86.86,0,0,1-.74-1.31l7-11.41a.69.69,0,0,1,1.28.36l.09,11.34A1,1,0,0,1,147.25,22.63Z"
          transform="translate(0 -0.36)"/>
    <path class="cls-1"
          d="M197.56,3.56a4.18,4.18,0,0,0-3.88,2.62L186.53,24h-.16L179.22,6.19a4.18,4.18,0,0,0-3.88-2.62h0a4.18,4.18,0,0,0-4.18,4.18v22a2.69,2.69,0,1,0,5.38,0V12.95h.16l7.12,17.45a2.83,2.83,0,0,0,5.24,0l7.12-17.45h.16v16.8a2.69,2.69,0,0,0,5.38,0v-22A4.18,4.18,0,0,0,197.56,3.56Z"
          transform="translate(0 -0.36)"/>
    <path class="cls-1"
          d="M163.58,25.44a3,3,0,0,0-2.33,1h0a3.22,3.22,0,0,0-.94,2.36,3.16,3.16,0,0,0,.91,2.36,3.11,3.11,0,0,0,2.37.91,3.17,3.17,0,0,0,2.39-.92,3.12,3.12,0,0,0,.92-2.35,3.19,3.19,0,0,0-1-2.35A3.08,3.08,0,0,0,163.58,25.44Z"
          transform="translate(0 -0.36)"/>
    <path class="cls-1"
          d="M223.66,27.76H211.22a.91.91,0,0,1-.91-.91V21a.91.91,0,0,1,.91-.91h11.11a2.13,2.13,0,0,0,0-4.25H211.22a.91.91,0,0,1-.91-.91V9.15a.91.91,0,0,1,.91-.91h12.2a2.34,2.34,0,0,0,2.34-2.34h0a2.34,2.34,0,0,0-2.34-2.34H208.08a2.63,2.63,0,0,0-2.63,2.63V29.8a2.63,2.63,0,0,0,2.63,2.63h15.58A2.34,2.34,0,0,0,226,30.1h0A2.34,2.34,0,0,0,223.66,27.76Z"
          transform="translate(0 -0.36)"/>
</svg>