<?xml version="1.0" encoding="utf-8"?>
<!-- Generator: Adobe Illustrator 21.0.2, SVG Export Plug-In . SVG Version: 6.00 Build 0)  -->
<svg version="1.1" id="_x31_" xmlns="http://www.w3.org/2000/svg" xmlns:xlink="http://www.w3.org/1999/xlink" x="0px" y="0px"
	 viewBox="0 0 84 84" style="enable-background:new 0 0 84 84;" xml:space="preserve">
<style type="text/css">
	.st0{fill:#FFFFFF;stroke:#FFFFFF;stroke-width:2;stroke-miterlimit:10;}
	.st1{fill:#FFFFFF;stroke:#FFFFFF;stroke-width:0.5;stroke-miterlimit:10;}
</style>
<g>
	<path class="st0" d="M78.7,24.9H24.9v12.8h53.8V24.9z M77,36H26.6v-9.4H77V36z"/>
	<path class="st1" d="M48.8,46.3h29.9V42H48.8V46.3z M50.5,43.7H77v0.9H50.5V43.7z"/>
	<path class="st1" d="M48.8,54.8h29.9v-4.3H48.8V54.8z M50.5,52.2H77v0.9H50.5V52.2z"/>
	<path class="st1" d="M48.8,63.3h29.9v-4.3H48.8V63.3z M50.5,60.8H77v0.9H50.5V60.8z"/>
	<path class="st1" d="M78.7,67.6H24.9v4.3h53.8V67.6z M77,70.2H26.6v-0.9H77V70.2z"/>
	<path class="st0" d="M45.4,42H24.9v21.4h20.5V42z M43.7,61.6H26.6V43.7h17.1V61.6z"/>
	<path class="st1" d="M20.6,24.9H5.3v4.3h15.4V24.9z M18.9,27.5H7v-0.9h12V27.5z"/>
	<path class="st1" d="M20.6,33.4H5.3v4.3h15.4V33.4z M18.9,36H7v-0.9h12V36z"/>
	<path class="st1" d="M20.6,42H5.3v4.3h15.4V42z M18.9,44.6H7v-0.9h12V44.6z"/>
	<path class="st1" d="M20.6,50.5H5.3v4.3h15.4V50.5z M18.9,53.1H7v-0.9h12V53.1z"/>
	<path class="st1" d="M20.6,59.1H5.3v4.3h15.4V59.1z M18.9,61.6H7v-0.9h12V61.6z"/>
	<path class="st0" d="M74.5,1H9.5C4.8,1,1,4.8,1,9.5v7.7v1.7v49.5C1,73.2,4.8,77,9.5,77h64.9c4.7,0,8.5-3.8,8.5-8.5V18.9v-1.7V9.5
		C83,4.8,79.2,1,74.5,1z M81.3,68.5c0,3.8-3.1,6.8-6.8,6.8H9.5c-3.8,0-6.8-3.1-6.8-6.8V18.9h78.6V68.5z M2.7,17.2V9.5
		c0-3.8,3.1-6.8,6.8-6.8h64.9c3.8,0,6.8,3.1,6.8,6.8v7.7H2.7z"/>
	<path class="st0" d="M9.5,5.3c-2.4,0-4.3,1.9-4.3,4.3s1.9,4.3,4.3,4.3c2.4,0,4.3-1.9,4.3-4.3S11.9,5.3,9.5,5.3z M9.5,12.1
		C8.1,12.1,7,10.9,7,9.5S8.1,7,9.5,7c1.4,0,2.6,1.1,2.6,2.6S11,12.1,9.5,12.1z"/>
	<path class="st0" d="M19.8,5.3c-2.4,0-4.3,1.9-4.3,4.3s1.9,4.3,4.3,4.3c2.4,0,4.3-1.9,4.3-4.3S22.2,5.3,19.8,5.3z M19.8,12.1
		c-1.4,0-2.6-1.1-2.6-2.6S18.4,7,19.8,7c1.4,0,2.6,1.1,2.6,2.6S21.2,12.1,19.8,12.1z"/>
	<path class="st0" d="M30,5.3c-2.4,0-4.3,1.9-4.3,4.3s1.9,4.3,4.3,4.3c2.4,0,4.3-1.9,4.3-4.3S32.4,5.3,30,5.3z M30,12.1
		c-1.4,0-2.6-1.1-2.6-2.6S28.6,7,30,7c1.4,0,2.6,1.1,2.6,2.6S31.5,12.1,30,12.1z"/>
</g>
</svg>
